<svg id="Camada_1" data-name="Camada 1" xmlns="http://www.w3.org/2000/svg" viewBox="0 0 48 48"><path d="M17.15,3.39a4.21,4.21,0,0,1,1.72.25,2.37,2.37,0,0,1,.73.4,1.2,1.2,0,0,1,.27,1.47,4.53,4.53,0,0,1-1.1,1.21c-1.05.87-2.16,1.65-3.24,2.47A13.3,13.3,0,0,0,14,10.47a1.84,1.84,0,0,0-.3.43c0,.11,0,.18.08.23a6.4,6.4,0,0,0,1.71.53l2.69.49a9.41,9.41,0,0,1,2.32.64,4.94,4.94,0,0,1,1.94,1.41,3,3,0,0,1,.68,2,4.2,4.2,0,0,1-.62,1.84,5.8,5.8,0,0,1-1.31,1.44,21.81,21.81,0,0,1-2.74,2A38.35,38.35,0,0,1,15,23.37l-4.18,2L9.59,26a.26.26,0,0,1-.35-.07A3.58,3.58,0,0,1,9,25.51c-.07-.07,0-.13.05-.17l.71-.44a.26.26,0,0,0,.16-.25c.05-.91.1-1.82.17-2.73.05-.69.09-1.37.13-2.06l.18-2.66c0-.57.06-1.14.1-1.71.07-1,.11-2.08.15-3.12,0-.59.05-1.17.06-1.76,0-1.13.06-2.26.06-3.4,0-.59,0-1.18,0-1.76,0-.21,0-.21-.2-.18l-2.82.42a4,4,0,0,1-1,.08c-.09,0-.23,0-.24-.1a.3.3,0,0,1,.18-.29A5.26,5.26,0,0,1,7.44,5c1.17-.3,2.35-.54,3.52-.79l2.66-.56a13.24,13.24,0,0,1,1.88-.24C16,3.42,16.55,3.39,17.15,3.39ZM16.08,4.55a3.58,3.58,0,0,0-.75,0l-2,.26-2,.29c-.13,0-.16.05-.13.18a15.91,15.91,0,0,1,.31,3.3c0,1.73,0,3.45-.09,5.18,0,.47-.05.95-.07,1.42l-.15,2.49c0,.45-.06.9-.1,1.35C11.1,19.7,11,20.33,11,21s-.09,1-.13,1.52-.12,1.14-.17,1.71c0,0,0,.08,0,.11s.07,0,.1,0l2.7-1.54,2.58-1.51c.57-.33,1.15-.64,1.71-1A23.53,23.53,0,0,0,20,18.52a5.83,5.83,0,0,0,1.35-1.41,3.31,3.31,0,0,0,.6-2.07,1.05,1.05,0,0,0-.4-.73,3.9,3.9,0,0,0-1.43-.7c-1.21-.34-2.45-.51-3.68-.73a11.23,11.23,0,0,1-2.14-.56A3.29,3.29,0,0,1,13,11.56a4.17,4.17,0,0,1-.37-.56,1.11,1.11,0,0,1-.16-1,2,2,0,0,1,.61-.84c.76-.67,1.59-1.25,2.4-1.85s1.44-1,2.13-1.61a5.8,5.8,0,0,0,1-1c.08-.12.07-.14-.07-.16a10.32,10.32,0,0,0-1.11-.06C17,4.51,16.51,4.51,16.08,4.55Z"/><path d="M26.61,26.16c0-.07,0-.12,0-.17a.94.94,0,0,1,0-.55c0-.05,0-.11,0-.16,0-.68,0-1.34.07-2,0-.84.09-1.68.14-2.52,0-.43.05-.87.06-1.3a18.82,18.82,0,0,1,.14-2c0-.12,0-.14-.12-.12l-.66.1c-.06,0-.13,0-.16-.05a.11.11,0,0,1,0-.16.77.77,0,0,0,.19-.28,2.86,2.86,0,0,1,.71-.76.44.44,0,0,0,.17-.29c.09-1,.18-1.9.28-2.85s.22-2.12.32-3.18c.08-.83.14-1.66.23-2.49.05-.47.14-.93.22-1.4q0-.32.12-.63c0-.09,0-.23.14-.24a.38.38,0,0,1,.32.18,1.09,1.09,0,0,1,.12.47,18.09,18.09,0,0,1,.16,2.32c0,.61-.07,1.21-.12,1.81s-.08,1.13-.13,1.69-.09,1.08-.14,1.62-.11,1.13-.16,1.69c0,.13,0,.26,0,.39s0,.17.15.12l3.69-1.23,2-.67a.2.2,0,0,0,.18-.21c.09-1,.2-1.92.29-2.88s.17-1.76.26-2.64.16-1.58.23-2.37c.06-.6.09-1.2.16-1.8s.21-1.5.35-2.24c.06-.32.15-.35.4-.14a.38.38,0,0,1,.13.24c.06.31.08.62.11.94.06.63.07,1.27.08,1.9a10,10,0,0,1-.06,1.09c0,.49-.07,1-.11,1.46S36.3,8,36.26,8.6s-.09,1.05-.13,1.58l-.21,2.14a4.93,4.93,0,0,1-.05.54c0,.13,0,.16.13.12l1.3-.44,3.23-1.12a3.64,3.64,0,0,1,.74,0s.06,0,.08.07a2,2,0,0,1,.21.63.32.32,0,0,1-.24.39c-.76.32-1.54.6-2.32.88l-3.15,1.1c-.1,0-.15.08-.16.19-.06.66-.14,1.32-.2,2s-.2,1.38-.32,2.07l-.69,3.93c-.15.84-.31,1.68-.49,2.51l-.06.39a.36.36,0,0,1-.21.31,3.16,3.16,0,0,1,0-.87c0-.43.05-.87.08-1.3,0-.7.09-1.39.14-2.08,0-.52.06-1,.1-1.56,0-.76.1-1.53.14-2.29,0-.5,0-1,.1-1.49,0-.33.07-.66.11-1,0,0,0-.06,0-.09,0-.18,0-.19-.17-.13-1.53.52-3.05,1.06-4.57,1.6a7.87,7.87,0,0,1-1.24.42c-.11,0-.09.13-.1.2q-.06.43-.09.87a22.19,22.19,0,0,1-.44,2.81c-.22,1.2-.44,2.4-.67,3.59-.08.46-.18.92-.27,1.38A.3.3,0,0,1,26.61,26.16Z"/><path d="M41.19,45.29a.36.36,0,0,1-.38.06,8.58,8.58,0,0,1-2.26-.75,12.88,12.88,0,0,1-2.08-1.37,11.19,11.19,0,0,1-1.16-1,6.35,6.35,0,0,1-1.57-2.7,3.49,3.49,0,0,1,0-1.51,5.71,5.71,0,0,1,.78-1.87A13.84,13.84,0,0,1,36,34.24a33,33,0,0,0,2.69-3.43,2.79,2.79,0,0,0,.45-1.57.34.34,0,0,0-.22-.33,3.64,3.64,0,0,0-1.21-.34,9,9,0,0,0-2.69.22,14.71,14.71,0,0,0-3.59,1.31c-.81.39-1.62.8-2.4,1.25-.35.2-.36.2-.28.59A13.92,13.92,0,0,1,29,33.86c0,.63,0,1.25,0,1.88,0,.8-.05,1.6-.11,2.4s-.14,1.64-.27,2.45-.42,1.89-.66,2.82-.44,1.64-.67,2.46c-.08.28-.17.57-.26.86,0,.11-.09.2-.22.18a.33.33,0,0,1-.3-.2,1.62,1.62,0,0,1,0-1c.21-1.1.44-2.19.64-3.29s.39-2.17.56-3.25c.1-.63.12-1.27.17-1.9.1-1.52.12-3,.11-4.56,0-.21,0-.42,0-.66-.3.21-.57.41-.83.61s-.5.33-.75.49c-.09,0-.18,0-.27.06s0,0-.05,0a.77.77,0,0,1,0-.56,1.91,1.91,0,0,1,.39-.58,10.54,10.54,0,0,1,1.47-1.28,20,20,0,0,1,3.22-1.81,16.37,16.37,0,0,1,1.66-.73,13.84,13.84,0,0,1,2.61-.65,5.7,5.7,0,0,1,2.78.17,3.49,3.49,0,0,1,1.57,1,2.2,2.2,0,0,1,.45,2,4.83,4.83,0,0,1-1,1.87c-.75,1-1.53,1.93-2.34,2.86a10.3,10.3,0,0,0-1.51,2,4.24,4.24,0,0,0-.6,2,3,3,0,0,0,.39,1.36,5.77,5.77,0,0,0,1.15,1.4,12.06,12.06,0,0,0,2.35,1.85,9.55,9.55,0,0,0,1.53.69c.23.08.46.18.69.27A.89.89,0,0,1,41.19,45.29Z"/><path d="M20.51,36.69a7.05,7.05,0,0,1-1.35,4.24,7,7,0,0,1-1.8,1.85,6.81,6.81,0,0,1-3,1.21A6.63,6.63,0,0,1,11,43.61a6.91,6.91,0,0,1-2.45-1.74,7.85,7.85,0,0,1-1.5-2.35,6,6,0,0,1-.44-1.92,6.13,6.13,0,0,1,1-3.77,7,7,0,0,1,4.05-2.93,8.48,8.48,0,0,1,2.79-.29,5.21,5.21,0,0,1,1.34.26,7,7,0,0,1,2.43,1.24,5.87,5.87,0,0,1,1.21,1.41,6.07,6.07,0,0,1,.9,2A4.42,4.42,0,0,1,20.51,36.69Zm-13,1.15a5,5,0,0,0,.39,2,5.6,5.6,0,0,0,1.32,1.91,4.11,4.11,0,0,0,1.38.95,5.73,5.73,0,0,0,3.4.24,6.53,6.53,0,0,0,3.58-2.15,7,7,0,0,0,1.69-3.41,6.43,6.43,0,0,0,.1-1.58,5.27,5.27,0,0,0-.57-2,3.34,3.34,0,0,0-1.52-1.67,5.13,5.13,0,0,0-1.88-.53,8.8,8.8,0,0,0-2.17.13,7.25,7.25,0,0,0-4.34,2.47A5.89,5.89,0,0,0,7.55,37.84Z"/><path d="M23.1,42a1.79,1.79,0,0,1-.94-.2,1.11,1.11,0,0,1-.57-1,2.83,2.83,0,0,1,.05-.77,1,1,0,0,1,.38-.57A2.14,2.14,0,0,1,23.08,39a1.51,1.51,0,0,1,1.54.66.48.48,0,0,1,.08.16,2,2,0,0,1,.05,1.07A1.5,1.5,0,0,1,23.48,42,2.87,2.87,0,0,1,23.1,42Z"/><path d="M23.13,35.38a2,2,0,0,1-1-.21,1.07,1.07,0,0,1-.54-1,2.63,2.63,0,0,1,0-.79,1.05,1.05,0,0,1,.38-.57,2.26,2.26,0,0,1,1.06-.5,1.52,1.52,0,0,1,1.54.65,1.09,1.09,0,0,1,.08.15,2,2,0,0,1,.05,1.1,1.43,1.43,0,0,1-1.14,1.06A1.89,1.89,0,0,1,23.13,35.38Z"/><path d="M23.06,26.06a1.58,1.58,0,0,1-1.06-.5,1.63,1.63,0,0,1-.43-.88,1.32,1.32,0,0,1,.28-.93,2.87,2.87,0,0,1,.68-.62,1.15,1.15,0,0,1,1.37.05,1.44,1.44,0,0,1,.66.63A1.53,1.53,0,0,1,23.38,26,1.12,1.12,0,0,1,23.06,26.06Zm-1-1.63c0,.12,0,.22,0,.32.08.45.12.6.58.7a1.4,1.4,0,0,0,.54,0,1.33,1.33,0,0,0,.83-.4,1.24,1.24,0,0,0,.15-1.26.16.16,0,0,0-.05-.09,1.51,1.51,0,0,0-.62-.34,1.21,1.21,0,0,0-.89.18,2.14,2.14,0,0,0-.32.2A.66.66,0,0,0,22,24.43Z"/></svg>